<svg width="25" height="32" viewBox="0 0 25 32" fill="none" xmlns="http://www.w3.org/2000/svg">
<path d="M7.03994 0.28577C7.90635 0.0245426 8.8361 0.0679413 9.67441 0.408742C10.5127 0.749542 11.209 1.36718 11.6474 2.15885L11.7939 2.45387L13.1047 5.36645C13.5025 6.25049 13.6316 7.23197 13.476 8.18882C13.3204 9.14566 12.8869 10.0357 12.2295 10.7481L11.9662 11.0094L9.90104 12.936C9.5288 13.2884 9.80798 14.6527 11.1544 16.9851C12.3661 19.0839 13.3522 20.064 13.8373 20.1175H13.9224L14.0274 20.0977L18.0864 18.8562C18.6319 18.6889 19.214 18.6823 19.7632 18.8371C20.3124 18.992 20.8053 19.3017 21.1831 19.7294L21.3633 19.9571L24.0501 23.6795C24.5767 24.4091 24.8391 25.2963 24.7941 26.1949C24.7491 27.0936 24.3994 27.9502 23.8026 28.6235L23.5611 28.873L22.4879 29.8907C21.5242 30.8034 20.3188 31.4201 19.0148 31.6675C17.7108 31.915 16.3632 31.7828 15.1322 31.2866C11.3009 29.7422 7.82006 26.2139 4.658 20.7372C1.49 15.2467 0.173302 10.461 0.761362 6.36239C0.939312 5.12344 1.44949 3.95581 2.23772 2.98351C3.02595 2.01121 4.06279 1.27055 5.23814 0.84017L5.62028 0.71345L7.03994 0.28577Z" fill="#108BF2"/>
</svg>
