<svg width="34" height="34" viewBox="0 0 34 34" fill="none" xmlns="http://www.w3.org/2000/svg">
<path d="M0.506622 33.4922L2.73742 25.295C1.2675 22.7752 0.49523 19.9094 0.500022 16.9922C0.500022 7.87924 7.88707 0.492188 17 0.492188C26.113 0.492188 33.5 7.87924 33.5 16.9922C33.5 26.1051 26.113 33.4922 17 33.4922C14.0841 33.4969 11.2195 32.7252 8.70052 31.2564L0.506622 33.4922ZM11.0452 9.25039C10.8321 9.26362 10.6239 9.31974 10.433 9.41539C10.254 9.51675 10.0906 9.64346 9.94792 9.79159C9.74992 9.97804 9.63772 10.1397 9.51727 10.2965C8.90745 11.0901 8.57943 12.0643 8.58502 13.0652C8.58832 13.8737 8.79952 14.6607 9.12952 15.3966C9.80437 16.8849 10.9148 18.4607 12.3817 19.9209C12.7348 20.2724 13.0796 20.6255 13.4509 20.9538C15.2715 22.5567 17.441 23.7127 19.7869 24.3297L20.7257 24.4733C21.031 24.4898 21.3362 24.4667 21.6431 24.4518C22.1237 24.427 22.5929 24.2969 23.0176 24.0707C23.2336 23.9594 23.4445 23.8383 23.6495 23.7077C23.6495 23.7077 23.7205 23.6615 23.8558 23.5592C24.0785 23.3942 24.2155 23.277 24.4003 23.084C24.5372 22.9421 24.656 22.7754 24.7468 22.5857C24.8755 22.3167 25.0042 21.8036 25.057 21.3762C25.0966 21.0495 25.085 20.8713 25.0801 20.7608C25.0735 20.5842 24.9266 20.4011 24.7666 20.3235L23.8063 19.8929C23.8063 19.8929 22.3708 19.2675 21.4946 18.8682C21.4022 18.828 21.3032 18.805 21.2026 18.8006C21.0897 18.789 20.9756 18.8017 20.868 18.8378C20.7605 18.874 20.6619 18.9327 20.5789 19.0101V19.0068C20.5706 19.0068 20.4601 19.1009 19.2671 20.5463C19.1986 20.6383 19.1043 20.7078 18.9962 20.746C18.8881 20.7842 18.771 20.7894 18.6599 20.7608C18.5524 20.732 18.4471 20.6956 18.3448 20.6519C18.1402 20.5661 18.0692 20.5331 17.929 20.472L17.9207 20.4687C16.9768 20.0566 16.1028 19.4999 15.3302 18.8187C15.1223 18.6372 14.9293 18.4392 14.7313 18.2478C14.0821 17.6262 13.5164 16.9229 13.0483 16.1556L12.9509 15.9989C12.881 15.8936 12.8245 15.7799 12.7826 15.6606C12.7199 15.4181 12.8833 15.2234 12.8833 15.2234C12.8833 15.2234 13.2842 14.7845 13.4707 14.5469C13.6259 14.3494 13.7708 14.144 13.9046 13.9314C14.0993 13.6179 14.1604 13.2962 14.0581 13.047C13.5961 11.9184 13.1176 10.7948 12.6259 9.67939C12.5285 9.45829 12.2398 9.29989 11.9774 9.26854C11.8883 9.25864 11.7992 9.24874 11.7101 9.24214C11.4885 9.23113 11.2665 9.23333 11.0452 9.24874V9.25039Z" fill="#108BF2"/>
</svg>
